<svg xmlns="http://www.w3.org/2000/svg" xmlns:xlink="http://www.w3.org/1999/xlink" contentStyleType="text/css" data-diagram-type="STATE" height="828px" preserveAspectRatio="none" style="width:363px;height:828px;background:#FFFFFF;" version="1.1" viewBox="0 0 363 828" width="363px" zoomAndPan="magnify"><defs/><g><g id="editor1"><rect fill="#F1F1F1" height="67.7969" rx="12.5" ry="12.5" style="stroke:#181818;stroke-width:0.5;" width="115.0625" x="17" y="87"/><line style="stroke:#181818;stroke-width:0.5;" x1="17" x2="132.0625" y1="114.6094" y2="114.6094"/><text fill="#000000" font-family="sans-serif" font-size="14" lengthAdjust="spacing" textLength="63.041" x="43.0107" y="106.5332">LineEditor</text><text fill="#000000" font-family="sans-serif" font-size="12" lengthAdjust="spacing" textLength="41.5371" x="22" y="132.0664">text = ""</text><text fill="#000000" font-family="sans-serif" font-size="12" lengthAdjust="spacing" textLength="95.0625" x="22" y="147.1602">insertionIndex = 0</text></g><g id="editor2"><rect fill="#F1F1F1" height="67.7969" rx="12.5" ry="12.5" style="stroke:#181818;stroke-width:0.5;" width="134.8965" x="7" y="233"/><line style="stroke:#181818;stroke-width:0.5;" x1="7" x2="141.8965" y1="260.6094" y2="260.6094"/><text fill="#000000" font-family="sans-serif" font-size="14" lengthAdjust="spacing" textLength="63.041" x="42.9277" y="252.5332">LineEditor</text><text fill="#000000" font-family="sans-serif" font-size="12" lengthAdjust="spacing" textLength="114.8965" x="12" y="278.0664">text = "Example Text"</text><text fill="#000000" font-family="sans-serif" font-size="12" lengthAdjust="spacing" textLength="95.0625" x="12" y="293.1602">insertionIndex = 0</text></g><g id="editor3"><rect fill="#F1F1F1" height="67.7969" rx="12.5" ry="12.5" style="stroke:#181818;stroke-width:0.5;" width="134.8965" x="7" y="379"/><line style="stroke:#181818;stroke-width:0.5;" x1="7" x2="141.8965" y1="406.6094" y2="406.6094"/><text fill="#000000" font-family="sans-serif" font-size="14" lengthAdjust="spacing" textLength="63.041" x="42.9277" y="398.5332">LineEditor</text><text fill="#000000" font-family="sans-serif" font-size="12" lengthAdjust="spacing" textLength="114.8965" x="12" y="424.0664">text = "Example Text"</text><text fill="#000000" font-family="sans-serif" font-size="12" lengthAdjust="spacing" textLength="95.0625" x="12" y="439.1602">insertionIndex = 8</text></g><g id="editor4"><rect fill="#F1F1F1" height="67.7969" rx="12.5" ry="12.5" style="stroke:#181818;stroke-width:0.5;" width="115.0625" x="17" y="525"/><line style="stroke:#181818;stroke-width:0.5;" x1="17" x2="132.0625" y1="552.6094" y2="552.6094"/><text fill="#000000" font-family="sans-serif" font-size="14" lengthAdjust="spacing" textLength="63.041" x="43.0107" y="544.5332">LineEditor</text><text fill="#000000" font-family="sans-serif" font-size="12" lengthAdjust="spacing" textLength="91.5586" x="22" y="570.0664">text = "Example "</text><text fill="#000000" font-family="sans-serif" font-size="12" lengthAdjust="spacing" textLength="95.0625" x="22" y="585.1602">insertionIndex = 8</text></g><g id="editor5"><rect fill="#F1F1F1" height="67.7969" rx="12.5" ry="12.5" style="stroke:#181818;stroke-width:0.5;" width="134.2285" x="7.5" y="671"/><line style="stroke:#181818;stroke-width:0.5;" x1="7.5" x2="141.7285" y1="698.6094" y2="698.6094"/><text fill="#000000" font-family="sans-serif" font-size="14" lengthAdjust="spacing" textLength="63.041" x="43.0938" y="690.5332">LineEditor</text><text fill="#000000" font-family="sans-serif" font-size="12" lengthAdjust="spacing" textLength="114.2285" x="12.5" y="716.0664">text = "Example Title"</text><text fill="#000000" font-family="sans-serif" font-size="12" lengthAdjust="spacing" textLength="101.7363" x="12.5" y="731.1602">insertionIndex = 13</text></g><ellipse cx="74.5" cy="16" fill="#222222" rx="10" ry="10" style="stroke:#222222;stroke-width:1;"/><ellipse cx="74.5" cy="811" fill="transparent" rx="11" ry="11" style="stroke:#222222;stroke-width:1;"/><ellipse cx="74.5" cy="811" fill="#222222" rx="6" ry="6" style="stroke:#222222;stroke-width:1;"/><!--link *start* to editor1--><g id="link_*start*_editor1"><path d="M74.5,26.14 C74.5,39.63 74.5,59.56 74.5,80.76 " fill="transparent" id="*start*-to-editor1" style="stroke:#181818;stroke-width:1;"/><polygon fill="#181818" points="74.5,86.76,78.5,77.76,74.5,81.76,70.5,77.76,74.5,86.76" style="stroke:#181818;stroke-width:1;"/></g><!--link editor1 to editor1--><g id="link_editor1_editor1"><path d="M132.31,109 C151.58,109 167,113 167,121 C167,129 157.58,133 138.31,133 " fill="transparent" id="editor1-to-editor1" style="stroke:#181818;stroke-width:1;"/><polygon fill="#181818" points="132.31,133,141.31,137,137.31,133,141.31,129,132.31,133" style="stroke:#181818;stroke-width:1;"/><text fill="#000000" font-family="sans-serif" font-size="13" lengthAdjust="spacing" textLength="88.4736" x="173" y="126.4951">toString() =&gt; "|"</text></g><!--link editor1 to editor2--><g id="link_editor1_editor2"><path d="M74.5,155.04 C74.5,178.29 74.5,203.29 74.5,226.62 " fill="transparent" id="editor1-to-editor2" style="stroke:#181818;stroke-width:1;"/><polygon fill="#181818" points="74.5,232.62,78.5,223.62,74.5,227.62,70.5,223.62,74.5,232.62" style="stroke:#181818;stroke-width:1;"/><text fill="#000000" font-family="sans-serif" font-size="13" lengthAdjust="spacing" textLength="139.9849" x="75.5" y="199.4951">setText("Example Text")</text></g><!--link editor2 to editor2--><g id="link_editor2_editor2"><path d="M142.03,253.54 C161.73,254.01 177,258.49 177,267 C177,275.51 167.7283,279.8469 148.0283,280.3169 " fill="transparent" id="editor2-to-editor2" style="stroke:#181818;stroke-width:1;"/><polygon fill="#181818" points="142.03,280.46,151.1228,284.2442,147.0286,280.3407,150.932,276.2465,142.03,280.46" style="stroke:#181818;stroke-width:1;"/><text fill="#000000" font-family="sans-serif" font-size="13" lengthAdjust="spacing" textLength="167.9463" x="183" y="272.4951">toString() =&gt; "|Example Text"</text></g><!--link editor2 to editor3--><g id="link_editor2_editor3"><path d="M74.5,301.04 C74.5,324.29 74.5,349.29 74.5,372.62 " fill="transparent" id="editor2-to-editor3" style="stroke:#181818;stroke-width:1;"/><polygon fill="#181818" points="74.5,378.62,78.5,369.62,74.5,373.62,70.5,369.62,74.5,378.62" style="stroke:#181818;stroke-width:1;"/><text fill="#000000" font-family="sans-serif" font-size="13" lengthAdjust="spacing" textLength="54.9009" x="75.5" y="345.4951">8 x right()</text></g><!--link editor3 to editor3--><g id="link_editor3_editor3"><path d="M142.03,399.54 C161.73,400.01 177,404.49 177,413 C177,421.51 167.7283,425.8469 148.0283,426.3169 " fill="transparent" id="editor3-to-editor3" style="stroke:#181818;stroke-width:1;"/><polygon fill="#181818" points="142.03,426.46,151.1228,430.2442,147.0286,426.3407,150.932,422.2465,142.03,426.46" style="stroke:#181818;stroke-width:1;"/><text fill="#000000" font-family="sans-serif" font-size="13" lengthAdjust="spacing" textLength="167.9463" x="183" y="418.4951">toString() =&gt; "Example |Text"</text></g><!--link editor3 to editor4--><g id="link_editor3_editor4"><path d="M74.5,447.04 C74.5,470.29 74.5,495.29 74.5,518.62 " fill="transparent" id="editor3-to-editor4" style="stroke:#181818;stroke-width:1;"/><polygon fill="#181818" points="74.5,524.62,78.5,515.62,74.5,519.62,70.5,515.62,74.5,524.62" style="stroke:#181818;stroke-width:1;"/><text fill="#000000" font-family="sans-serif" font-size="13" lengthAdjust="spacing" textLength="95.3799" x="75.5" y="491.4951">4 x deleteRight()</text></g><!--link editor4 to editor4--><g id="link_editor4_editor4"><path d="M132.31,545.5 C151.58,545.5 167,550 167,559 C167,568 157.58,572.5 138.31,572.5 " fill="transparent" id="editor4-to-editor4" style="stroke:#181818;stroke-width:1;"/><polygon fill="#181818" points="132.31,572.5,141.31,576.5,137.31,572.5,141.31,568.5,132.31,572.5" style="stroke:#181818;stroke-width:1;"/><text fill="#000000" font-family="sans-serif" font-size="13" lengthAdjust="spacing" textLength="142.6636" x="173" y="564.4951">toString() =&gt; "Example |"</text></g><!--link editor4 to editor5--><g id="link_editor4_editor5"><path d="M74.5,593.04 C74.5,616.29 74.5,641.29 74.5,664.62 " fill="transparent" id="editor4-to-editor5" style="stroke:#181818;stroke-width:1;"/><polygon fill="#181818" points="74.5,670.62,78.5,661.62,74.5,665.62,70.5,661.62,74.5,670.62" style="stroke:#181818;stroke-width:1;"/><text fill="#000000" font-family="sans-serif" font-size="13" lengthAdjust="spacing" textLength="108.1958" x="75.5" y="637.4951">insertString("Title")</text></g><!--link editor5 to editor5--><g id="link_editor5_editor5"><path d="M141.7,693.04 C161.31,693.45 176.5,697.44 176.5,705 C176.5,712.56 167.3087,716.4246 147.6987,716.8346 " fill="transparent" id="editor5-to-editor5" style="stroke:#181818;stroke-width:1;"/><polygon fill="#181818" points="141.7,716.96,150.7816,720.771,146.6989,716.8555,150.6144,712.7727,141.7,716.96" style="stroke:#181818;stroke-width:1;"/><text fill="#000000" font-family="sans-serif" font-size="13" lengthAdjust="spacing" textLength="167.2227" x="182.5" y="710.4951">toString() =&gt; "Example Title|"</text></g><!--link editor5 to *end*--><g id="link_editor5_*end*"><path d="M74.5,739.19 C74.5,760.12 74.5,779.74 74.5,793.71 " fill="transparent" id="editor5-to-*end*" style="stroke:#181818;stroke-width:1;"/><polygon fill="#181818" points="74.5,799.71,78.5,790.71,74.5,794.71,70.5,790.71,74.5,799.71" style="stroke:#181818;stroke-width:1;"/></g><!--SRC=[bP51Yy8m48Nl-HN3dAeWhAO5MQWt3u8dTs-BXq87Dr3JfPb33_vuiveqZSQ2foGpxts4zmnNJ81xfMbRAsuxXCe0tQvBuSvFOEePIa0C8wKDTQnQlTCrzNRv8OIPeAsSTHLesxuw_pK4t_QDOVqkMJghd2RB17azJSwTDNycOrYzIosSjKZyLt536FPFwAKKucT-XCLYCxJaEnaFBRhzuaxfKpQ3SWDumOJCXcs8_qFAuiXclerO_CXC5ZYosCZNq4EdJh-SUQQC1GzCZxn4rOqiDl3SCcjgYEaGaVDOzegC2VcGjRFWlGbFBcBf2_BDC-3l7blM5G00]--></g></svg>